<svg xmlns="http://www.w3.org/2000/svg" xmlns:xlink="http://www.w3.org/1999/xlink" x="0" y="0" version="1.1" viewBox="0 0 512 512" xml:space="preserve" style="enable-background:new 0 0 512 512"><style type="text/css">.st7,.st8{fill:#fff}.st8{opacity:.2}</style><g id="Sketches"><g><g><polygon points="354.5 157.6 433.2 157.6 393.8 0 118.2 0 157.5 157.6 236.3 157.6 275.7 315.1 226.5 315.1 246.2 393.9 295.4 393.9 315.1 472.6 433.2 472.6" class="st8"/><polygon points="393.8 196.9 364.3 196.9 354.5 157.6 433.2 157.6" class="st7"/><polygon points="236.3 157.6 157.5 157.6 118.2 0 78.8 39.4 118.2 196.9 196.9 196.9 226.5 315.1 275.7 315.1" class="st7"/><polygon points="369.3 59.1 172.3 59.1 177.2 78.8 354.5 78.8 364.3 118.2 384 118.2" class="st7"/><polygon points="393.8 472.6 393.8 472.6 305.2 118.2 289.5 133.9 374.2 472.6 374.2 472.6 315.1 472.6 315.1 472.6 295.4 393.9 246.2 393.9 226.5 315.1 187.1 354.5 206.8 433.2 256 433.2 275.7 512 275.7 512 393.8 512 433.2 472.6" class="st7"/></g></g></g></svg>