<svg xmlns="http://www.w3.org/2000/svg" xmlns:xlink="http://www.w3.org/1999/xlink" x="0" y="0" version="1.1" viewBox="0 0 1615 512" xml:space="preserve" style="enable-background:new 0 0 1615 512"><style type="text/css">.st7,.st8{fill:#fff}.st8{opacity:.2}.st86{fill:none}</style><g id="Sketches"><g><path d="M1265,259.9c-5.5-4.4-12.3-6.6-20.4-6.6c-8,0-14.7,2.1-20.2,6.3c-5.5,4.2-9.7,10.2-12.6,18 c-2.9,7.8-4.4,16.9-4.4,27.4c0,10.5,1.5,19.7,4.4,27.5c2.9,7.8,7.1,13.9,12.7,18.3c5.5,4.3,12.3,6.5,20.2,6.5 c8,0,14.8-2.2,20.3-6.6c5.5-4.4,9.7-10.6,12.6-18.4c2.9-7.9,4.3-17,4.3-27.3c0-10.2-1.4-19.2-4.3-27 C1274.7,270.3,1270.5,264.3,1265,259.9z" class="st86"/><path d="M767.7,255.6c-5.4-3.1-11.7-4.7-18.8-4.7c-7.5,0-14,1.7-19.8,5.1c-5.7,3.4-10.2,8-13.4,13.7 c-3,5.3-4.6,11.1-4.9,17.5h74.3c0-7.1-1.5-13.3-4.6-18.8C777.4,263,773.1,258.7,767.7,255.6z" class="st86"/><path d="M1568.6,287.2c0-7.1-1.5-13.3-4.6-18.8c-3.1-5.5-7.3-9.7-12.7-12.9c-5.4-3.1-11.7-4.7-18.8-4.7 c-7.5,0-14,1.7-19.8,5.1c-5.7,3.4-10.2,8-13.4,13.7c-3,5.3-4.6,11.1-4.9,17.5H1568.6z" class="st86"/><polygon points="669.7 157.5 475.8 157.5 475.8 198.7 548.1 198.7 548.1 393.6 597.4 393.6 597.4 198.7 669.7 198.7" class="st7"/><path d="M807.2,236.6c-7.6-7.5-16.4-13-26.5-16.8c-10.1-3.7-21-5.6-32.7-5.6c-17.4,0-32.5,3.8-45.4,11.5 c-12.9,7.7-22.8,18.4-29.9,32.2c-7.1,13.8-10.6,29.7-10.6,47.9c0,18.7,3.5,34.8,10.6,48.5c7.1,13.6,17.2,24.2,30.3,31.6 c13.1,7.4,28.8,11.1,47,11.1c14.6,0,27.5-2.2,38.7-6.7c11.2-4.5,20.3-10.8,27.4-18.9c7.1-8.1,11.8-17.6,14.1-28.5l-45.4-3 c-1.7,4.5-4.1,8.2-7.4,11.3c-3.2,3.1-7.1,5.4-11.6,6.9c-4.5,1.5-9.5,2.3-15,2.3c-8.2,0-15.3-1.7-21.3-5.2 c-6-3.5-10.6-8.4-13.9-14.8c-3.3-6.4-4.9-13.9-4.9-22.7v-0.1h120.6v-13.5c0-15.1-2.1-28.2-6.3-39.5 C820.7,253.4,814.8,244.1,807.2,236.6z M710.8,287.2c0.3-6.4,1.9-12.2,4.9-17.5c3.2-5.7,7.7-10.3,13.4-13.7 c5.7-3.4,12.3-5.1,19.8-5.1c7.1,0,13.4,1.6,18.8,4.7c5.4,3.1,9.7,7.4,12.7,12.9c3.1,5.5,4.6,11.7,4.6,18.8H710.8z" class="st7"/><path d="M1064.8,214.2c-13,0-24.2,3.1-33.7,9.2c-9.5,6.1-16,14.2-19.6,24.4h-1.8c-2.8-10.3-8.5-18.5-17.1-24.5 c-8.5-6-18.9-9-31-9c-12,0-22.3,3-30.9,9c-8.6,6-14.8,14.2-18.4,24.5h-2.1v-31.2h-46.8v177h49.1V287.3c0-6.5,1.3-12.2,3.8-17.1 c2.5-4.9,6-8.7,10.3-11.4c4.3-2.7,9.2-4.1,14.7-4.1c8.1,0,14.6,2.6,19.5,7.7c5,5.1,7.4,12.1,7.4,20.7v110.4h47.6V285.5 c0-9.2,2.5-16.7,7.5-22.3c5-5.6,11.9-8.5,20.9-8.5c7.8,0,14.4,2.5,19.6,7.4c5.2,4.9,7.8,12.3,7.8,22.1v109.4h49V274.5 c0-19.2-5.2-34.1-15.5-44.5C1094.7,219.5,1081.3,214.2,1064.8,214.2z" class="st7"/><path d="M1296,224.3c-10.9-6.7-22.8-10.1-35.7-10.1c-9.9,0-18.2,1.7-24.8,5c-6.6,3.3-12,7.5-16.1,12.4 c-4.1,5-7.2,9.8-9.4,14.6h-2.2v-29.7h-48.4V460h49.1v-94.7h1.5c2.2,4.9,5.5,9.8,9.7,14.6c4.2,4.8,9.7,8.8,16.3,11.9 c6.6,3.1,14.7,4.7,24.3,4.7c13.4,0,25.6-3.5,36.5-10.4c10.9-7,19.5-17.2,25.8-30.8c6.3-13.6,9.5-30.2,9.5-50 c0-20.3-3.3-37.2-9.8-50.7C1315.6,241.2,1306.9,231.1,1296,224.3z M1277.5,332.3c-2.9,7.9-7.1,14-12.6,18.4 c-5.5,4.4-12.3,6.6-20.3,6.6c-7.9,0-14.6-2.2-20.2-6.5c-5.5-4.3-9.8-10.4-12.7-18.3c-2.9-7.8-4.4-17-4.4-27.5 c0-10.5,1.5-19.7,4.4-27.4c2.9-7.8,7.1-13.8,12.6-18c5.5-4.2,12.2-6.3,20.2-6.3c8.1,0,14.9,2.2,20.4,6.6 c5.5,4.4,9.7,10.5,12.6,18.2c2.8,7.8,4.3,16.8,4.3,27C1281.8,315.4,1280.4,324.4,1277.5,332.3z" class="st7"/><rect width="49.1" height="236" x="1364.6" y="157.5" class="st7"/><path d="M1614.8,317.6v-13.5c0-15.1-2.1-28.2-6.3-39.5c-4.2-11.3-10.1-20.6-17.7-28.1c-7.6-7.5-16.4-13-26.5-16.8 c-10.1-3.7-21-5.6-32.7-5.6c-17.4,0-32.5,3.8-45.4,11.5c-12.9,7.7-22.8,18.4-29.9,32.2c-7.1,13.8-10.6,29.7-10.6,47.9 c0,18.7,3.5,34.8,10.6,48.5c7.1,13.6,17.2,24.2,30.3,31.6c13.1,7.4,28.8,11.1,47,11.1c14.6,0,27.5-2.2,38.7-6.7 c11.2-4.5,20.3-10.8,27.4-18.9c7.1-8.1,11.8-17.6,14.1-28.5l-45.4-3c-1.7,4.5-4.1,8.2-7.4,11.3c-3.2,3.1-7.1,5.4-11.6,6.9 c-4.5,1.5-9.5,2.3-15,2.3c-8.2,0-15.3-1.7-21.3-5.2c-6-3.5-10.6-8.4-13.9-14.8c-3.3-6.4-4.9-13.9-4.9-22.7v-0.1H1614.8z M1512.6,256c5.7-3.4,12.3-5.1,19.8-5.1c7.1,0,13.4,1.6,18.8,4.7c5.4,3.1,9.7,7.4,12.7,12.9c3.1,5.5,4.6,11.7,4.6,18.8h-74.3 c0.3-6.4,1.9-12.2,4.9-17.5C1502.4,264,1506.9,259.4,1512.6,256z" class="st7"/></g><g><g><polygon points="275.7 157.5 354.5 157.5 315.1 0 39.4 0 78.8 157.5 157.5 157.5 196.9 315.1 147.7 315.1 167.4 393.8 216.6 393.8 236.3 472.6 354.5 472.6" class="st8"/><polygon points="315.1 196.9 285.5 196.9 275.7 157.5 354.5 157.5" class="st7"/><polygon points="157.5 157.5 78.8 157.5 39.4 0 0 39.4 39.4 196.9 118.2 196.9 147.7 315.1 196.9 315.1" class="st7"/><polygon points="290.5 59.1 93.5 59.1 98.5 78.8 275.7 78.8 285.5 118.2 305.2 118.2" class="st7"/><polygon points="315.1 472.6 315.1 472.6 226.5 118.2 210.7 133.9 295.4 472.6 295.4 472.6 236.3 472.6 236.3 472.6 216.6 393.8 167.4 393.8 147.7 315.1 108.3 354.5 128 433.2 177.2 433.2 196.9 512 196.9 512 315.1 512 354.5 472.6" class="st7"/></g></g></g></svg>