<svg xmlns="http://www.w3.org/2000/svg" width="48" height="48" fill="none" stroke="#fff" stroke-linecap="round" stroke-linejoin="round" stroke-width="1" aria-labelledby="qrIconTitle" viewBox="0 0 24 24"><title id="qrIconTitle">QR Code</title><rect width="7" height="7" x="10" y="3" transform="rotate(90 10 3)"/><rect width="1" height="1" transform="matrix(-1 0 0 1 7 6)"/><rect width="7" height="7" x="10" y="14" transform="rotate(90 10 14)"/><rect width="1" height="1" x="6" y="17"/><rect width="1" height="1" x="14" y="20"/><rect width="1" height="1" x="17" y="17"/><rect width="1" height="1" x="14" y="14"/><rect width="1" height="1" x="20" y="17"/><rect width="1" height="1" x="20" y="14"/><rect width="1" height="1" x="20" y="20"/><rect width="7" height="7" x="21" y="3" transform="rotate(90 21 3)"/><rect width="1" height="1" x="17" y="6"/></svg>